<svg xmlns="http://www.w3.org/2000/svg" xmlns:xlink="http://www.w3.org/1999/xlink" viewBox="0 0 100 100"><path fill="#78cdd4" d="M64.37 43.99L54 53.747 54 15 50 15 46 15 46 53.747 35.63 43.99 29.98 49.65 50 68.997 70.02 49.65zM81 70v13H19V69h6v8h50v-7H81z"/><path fill="#1f212b" d="M49.305,69.717c0.194,0.187,0.444,0.281,0.695,0.281s0.501-0.094,0.695-0.281l20.02-19.348c0.193-0.187,0.303-0.442,0.305-0.71s-0.103-0.525-0.292-0.715l-5.65-5.66c-0.382-0.383-1-0.392-1.393-0.022L55,51.434V15c0-0.552-0.448-1-1-1h-8c-0.552,0-1,0.448-1,1v36.434l-8.685-8.172c-0.393-0.37-1.011-0.361-1.393,0.022l-5.65,5.66c-0.189,0.19-0.295,0.447-0.292,0.715s0.112,0.524,0.305,0.71L49.305,69.717z M35.652,45.384l9.663,9.092c0.291,0.273,0.717,0.347,1.082,0.189C46.763,54.507,47,54.146,47,53.748V16h6v37.748c0,0.399,0.237,0.76,0.604,0.918c0.364,0.157,0.791,0.083,1.082-0.189l9.663-9.092l4.246,4.253L50,67.607l-18.594-17.97L35.652,45.384z"/><path fill="#1f212b" d="M81,69h-6c-0.552,0-1,0.448-1,1v6H26v-7c0-0.552-0.448-1-1-1h-6c-0.552,0-1,0.448-1,1v14c0,0.552,0.448,1,1,1h62c0.552,0,1-0.448,1-1V70C82,69.448,81.552,69,81,69z M80,82H20V70h4v7c0,0.552,0.448,1,1,1h50c0.552,0,1-0.448,1-1v-6h4V82z"/><path fill="#1f212b" d="M29.5 73c-.276 0-.5.224-.5.5s.224.5.5.5h31c.276 0 .5-.224.5-.5S60.776 73 60.5 73H29.5zM63.5 73c-.276 0-.5.224-.5.5s.224.5.5.5h3c.276 0 .5-.224.5-.5S66.776 73 66.5 73H63.5zM68.5 73c-.276 0-.5.224-.5.5s.224.5.5.5h2c.276 0 .5-.224.5-.5S70.776 73 70.5 73H68.5z"/></svg>